<svg xmlns="http://www.w3.org/2000/svg" xmlns:xlink="http://www.w3.org/1999/xlink" width="372.5" height="306.25" viewBox="0 0 372.5 306.25">
  <path fill="#3C63AE" d="M.416.578h372.5v306.25H.416z"/>
  <g opacity=".6">
    <defs>
      <path id="a" d="M81.858 83.586h213.47v156.852H81.858z"/>
    </defs>
    <clipPath id="b">
      <use xlink:href="#a" overflow="visible"/>
    </clipPath>
    <path clip-path="url(#b)" fill="#FFF" d="M294.843 205.358l-.003-.02v-.015c-.23-3.756-1.51-6.674-3.8-8.684-4.632-4.06-12.103-3.538-20.01-2.99-2.26.16-22.17.675-27.266.19-23.745-2.666-42.575-17.416-55.96-43.842-10.14-20.013-13.152-39.537-13.182-39.73-.104-.687-.482-1.296-1.048-1.692-.566-.396-1.268-.544-1.946-.406-.005 0-1.963.4-12.115 2.437-3.828.768-6.59 2.517-8.203 5.196-.4.665-.698 1.343-.923 2.01h-32.16c-.582-1.15-1.307-2.166-2.183-3.036-3.11-3.104-6.823-3.183-7.24-3.183h-7.357v-3.29c3.863-1.1 6.703-4.653 6.703-8.863v-6.63c0-5.087-4.136-9.223-9.222-9.223-1.39 0-2.52 1.13-2.52 2.52v25.487h-.953c-.672 0-1.32.27-1.792.748-.475.48-.736 1.128-.726 1.804.002.213.272 21.543 0 36.347-.167 8.95-.987 11.417-3.182 18.01-1.35 4.052-3.197 9.6-5.637 18.938-3.84 14.69-2.13 22.806.268 27.175-.372.12-.716.316-1 .598-.474.473-.74 1.113-.74 1.785v18.63c0 1.392 1.13 2.52 2.52 2.52h57.56c1.393 0 2.52-1.128 2.52-2.52v-4.98c4.58.218 14.933 1.003 27.212 3.89 14.46 3.395 26.867 5.654 40.412 5.654 7.38 0 14.953-.68 23.154-2.08 21.895-3.736 45.98-13.92 53.89-17.266 5.143-2.176 5.075-12.404 4.93-15.488zM101.448 89.476c1.01.766 1.663 1.972 1.663 3.332v6.632c0 1.36-.653 2.566-1.662 3.332V89.476zm48.438 33.375c.086.815 12.008 69.417 12.008 69.417-.103 2.813-2.426 5.068-5.264 5.068h-31.42c-2.903 0-5.266-2.363-5.266-5.266v-66c0-1.135-.074-2.206-.214-3.22h30.156zm-60.89 65.865c2.4-9.18 4.215-14.637 5.543-18.623 2.236-6.72 3.257-9.787 3.437-19.508.22-11.837.09-27.808.03-33.95h10.805c.02 0 2.03.066 3.676 1.71 1.604 1.6 2.418 4.2 2.418 7.725v66c0 5.68 4.625 10.304 10.305 10.304h31.42c5.686 0 10.358-4.623 10.307-10.305-.015-1.737-11.835-68.66-11.858-68.743-.008-.026-.5-3.083.568-4.953.814-1.427 2.493-2.353 4.86-2.827 4.82-.967 7.795-1.565 9.59-1.927 1.17 6.102 4.774 21.956 13.15 38.536 6.19 12.252 13.714 22.317 22.354 29.913 10.896 9.575 23.568 15.366 37.71 16.794 3.335.334 23.645.236 28.07-.184 6.517-.623 13.28-.928 16.337 1.752.954.834 1.577 2.016 1.888 3.578-7.72 3.742-42.49 19.783-72.115 20.23-15.06.232-25.578-2-36.743-4.363-12.244-2.594-24.907-5.28-44.85-5.28-14.174 0-35.254.036-45.18 0-1.458-1.18-6.657-7.005-1.723-25.882zm198.96 27.49c-7.78 3.288-31.46 13.3-52.778 16.94-7.915 1.352-15.214 2.006-22.306 2.006-13.062 0-25.14-2.206-39.257-5.522-17.16-4.03-30.33-4.1-30.882-4.1h-.004c-.668 0-1.308.266-1.78.738-.476.47-.74 1.113-.74 1.783v5.058H87.687v-13.47c7.877.028 32.363 0 48.21 0 19.418 0 31.818 2.628 43.806 5.167 11.445 2.424 22.234 4.707 37.865 4.475 28.86-.436 61.313-14.592 72.187-19.742-.257 3.537-1.036 6.343-1.8 6.666zm0 0"/>
  </g>
</svg>
