<svg xmlns="http://www.w3.org/2000/svg" width="372.5" height="306.25" viewBox="0 0 372.5 306.25">
  <path fill="#3C63AE" d="M1 .578h372.5v306.25H1z"/>
  <g opacity=".6" fill="#FFF">
    <path d="M270.65 160.403c-3.18-75.083-7.126-90.81-7.292-91.443-.316-1.206-1.41-2.05-2.658-2.05H111.804c-1.248 0-2.342.844-2.66 2.05-.165.634-4.112 16.36-7.292 91.443-.003.04-.003 95.86-.003 95.86 0 1.52 1.23 2.75 2.75 2.75h74.046c1.518 0 2.75-1.23 2.75-2.75v-34.85c.05-1.18.992-21.286 4.856-34.43 3.86 13.144 4.8 33.25 4.852 34.43v34.85c0 1.52 1.232 2.75 2.75 2.75h74.05c1.52 0 2.75-1.23 2.75-2.75l-.003-95.86zM114.06 72.41h36.837v12.064h-38.473c.7-6.265 1.28-10.02 1.636-12.063zm-2.216 17.565h10.664c-.51 28.353-8.89 37.983-13.715 41.184 1.06-18.67 2.13-31.927 3.05-41.185zm-4.495 163.537v-8.906h68.546v8.906H107.35zm76.152-74.828c-6.342 13.096-7.606 42.637-7.606 42.676v17.746H107.35v-78.53c.356-8.413.722-16.07 1.092-23.046 5.526-2.095 18.927-10.943 19.566-47.555h22.89v2.59c0 1.52 1.23 2.75 2.75 2.75s2.748-1.23 2.748-2.75v-2.59h27.106v88.71zm0-94.21h-27.106V72.412h27.106v12.065zm80.21 46.684c-4.825-3.203-13.204-12.834-13.716-41.184h10.674c.918 9.24 1.985 22.483 3.043 41.184zM221.605 72.41h36.844c.36 2.033.938 5.777 1.643 12.064h-38.485V72.41zm-32.604 0h27.104v12.064H189V72.41zm0 17.565h8.332v45.234c0 12.52-5.055 16.49-8.332 17.75V89.974zm0 88.71V158.68c2.023-.473 4.832-1.557 7.408-4.076 4.262-4.168 6.424-10.696 6.424-19.397V89.974h13.27v2.593c0 1.518 1.23 2.75 2.75 2.75s2.75-1.232 2.75-2.75v-2.593h22.892c.643 36.613 14.043 45.463 19.566 47.555.37 6.973.736 14.63 1.094 23.045v78.53h-68.55v-17.858c-.05-1.217-1.262-29.47-7.604-42.563zm7.604 74.827v-8.906h68.55v8.906h-68.55zm0 0"/>
    <path d="M195.542 81.194c-.72 0-1.432-.297-1.94-.81-.515-.51-.806-1.22-.806-1.945 0-.72.29-1.43.805-1.942.515-.51 1.222-.804 1.942-.804.725 0 1.434.293 1.947.804.51.513.802 1.222.802 1.94 0 .726-.293 1.438-.803 1.947-.515.514-1.224.81-1.948.81zm0 0"/>
  </g>
</svg>
