<svg xmlns="http://www.w3.org/2000/svg" xmlns:xlink="http://www.w3.org/1999/xlink" width="372.5" height="306.25" viewBox="0 0 372.5 306.25">
  <path fill="#3C63AE" d="M.17.396h372.5v306.25H.17z"/>
  <g opacity=".6">
    <path fill="#FFF" d="M179.892 173.393c-1.58 0-2.863-1.283-2.863-2.863V95.41c0-3.937-.563-5.457-.77-5.884-.956-.632-1.48-1.806-1.222-2.994.333-1.546 1.855-2.53 3.398-2.194 1.97.425 4.316 2.688 4.316 11.07v75.12c0 1.582-1.278 2.865-2.86 2.865zm0 0"/>
    <defs>
      <path id="a" d="M102.274 40h183.062v238.275H102.274z"/>
    </defs>
    <clipPath id="b">
      <use xlink:href="#a" overflow="visible"/>
    </clipPath>
    <path clip-path="url(#b)" fill="#FFF" d="M207.76 173.393c-1.582 0-2.863-1.283-2.863-2.863V95.41c0-8.383 2.35-10.647 4.316-11.07 1.543-.337 3.066.647 3.398 2.193.26 1.188-.26 2.362-1.218 2.994-.21.43-.77 1.947-.77 5.883v75.12c0 1.58-1.28 2.863-2.862 2.863zm0 0"/>
    <path clip-path="url(#b)" fill="#FFF" d="M285.38 253.307c-2.03-65.637-9.958-106.622-16.25-129.446-6.653-24.134-12.89-33.686-13.577-34.694-.676-1.08-6.64-10.026-21.182-14.47 1.542-2.48 3.095-6.062 3.054-10.34-.057-5.566-2.754-10.835-8.014-15.66-5.517-4.84-17.712-8.696-35.58-8.696h-.007c-17.86 0-29.238 3.234-35.572 8.688-5.268 4.824-7.968 10.095-8.023 15.67-.042 4.276 1.515 7.856 3.05 10.335C138.74 79.14 132.78 88.08 132.1 89.166c-.685 1-6.923 10.554-13.577 34.695-6.293 22.826-14.22 63.81-16.248 129.447v19.14c0 1.423 1.045 2.628 2.45 2.832 0 0 18.733 2.71 18.87 2.71 1.205 0 2.304-.766 2.705-1.935l6.293-18.31 2.172-7.237 2.75 12.15c.296 1.303 1.453 2.23 2.79 2.23h107.042c1.336 0 2.496-.928 2.79-2.23l2.753-12.15s2.166 7.223 2.172 7.236l6.29 18.31c.4 1.17 1.5 1.937 2.708 1.937.137 0 18.87-2.71 18.87-2.71 1.407-.205 2.45-1.41 2.45-2.832v-19.14zM161.77 53.302c2.42-2.804 9.73-7.578 32.053-7.578h.006c21.868 0 29.27 4.646 31.83 7.323 2.194 2.298 1.337 4.85 1.085 5.47-.354-.063-5.342-.67-8.563-.874-6.518-.41-15.166-.637-24.36-.637-9.188 0-17.835.226-24.352.637-3.223.204-8.21.808-8.564.872-.25-.618-1.247-2.773.864-5.213zm60.475 10.392c-1.29 1.02-8.96 6.406-11.28 8.243H176.69c-2.317-1.837-9.99-7.223-11.28-8.243 5.245-.5 14.938-.964 28.42-.964 13.48 0 23.172.463 28.417.964zm-100.588 208.26L108 269.97V256.68l18.05 2.493-4.393 12.78zm14.225-130.378c-6.253 28.658-4.142 75.886-2.932 95.043l-5.102 17.024-19.77-2.73c2.12-63.136 9.732-102.725 15.79-124.907 4.19-15.34 8.22-24.655 10.648-29.48 9.768 19.83 1.388 44.94 1.366 45.05zm55.08 117.59h-48.37l-2.613-11.536h50.98v11.535zm0-17.26h-39.15V229.79c2.296-3.707 12.096-20.44 14.514-39.803h24.635v51.918zm0-57.644h-27.208c-1.484 0-2.723 1.135-2.852 2.613-1.864 21.137-14.227 40.33-14.35 40.52-.305.464-.467 1.01-.467 1.563v12.946h-7.033c-.904-12.64-4.334-67.912 2.387-98.957.886-2.66 9.562-30.234-3.494-52.103 2.173-2.672 8.042-8.537 19.457-11.352 1.777 1.526 5.335 4.492 8.464 6.5.478.307 1.014.452 1.543.452.94 0 1.867-.463 2.41-1.317.857-1.33.47-3.1-.863-3.955-3.714-2.38-8.36-6.485-8.817-6.893-.222-.222-4.245-4.336-4.187-9.87.008-.81.105-1.614.287-2.416 2.116 3.877 6.09 6.667 10.516 9.758 3.58 2.5 7.64 5.336 11.58 9.277 12.04 12.04 12.607 27.17 12.628 29.238-.003.076-.003 73.994-.003 73.994zm2.865-89.132c-1.96-5.49-5.258-11.72-10.787-17.47h21.572c-5.53 5.75-8.826 11.98-10.785 17.47zm51.234 164.035h-48.368V247.63h50.98l-2.61 11.535zm-48.368-17.26v-51.918h24.633c2.418 19.36 12.22 36.096 14.518 39.803v12.115h-39.15zm51.906 0h-7.03V228.96c0-.555-.163-1.1-.466-1.563-.125-.19-12.488-19.385-14.352-40.52-.133-1.48-1.37-2.614-2.852-2.614H196.69s0-73.72-.003-73.748c0-.006.64-17.495 12.63-29.48 3.94-3.943 8-6.778 11.58-9.28 4.423-3.09 8.4-5.88 10.517-9.757.176.786.273 1.574.285 2.362.083 5.592-3.995 9.732-4.19 9.925-.48.428-5.104 4.51-8.817 6.89-1.33.855-1.715 2.625-.863 3.955.545.854 1.467 1.317 2.412 1.317.53 0 1.064-.146 1.543-.453 3.127-2.006 6.686-4.972 8.463-6.5 11.424 2.82 17.293 8.69 19.46 11.353-13.058 21.868-4.382 49.444-3.497 52.105 6.724 31.04 3.294 86.314 2.388 98.953zm3.174-100.33c-.025-.105-8.406-25.22 1.363-45.047 6.232 12.404 23.096 54.733 26.44 154.387l-19.77 2.73-5.103-17.027c1.21-19.16 3.322-66.384-2.93-95.042zm14.223 130.378l-4.39-12.776 18.05-2.496v13.292l-13.66 1.98zm0 0"/>
  </g>
</svg>
