<svg xmlns="http://www.w3.org/2000/svg" xmlns:xlink="http://www.w3.org/1999/xlink" width="372.5" height="306.25" viewBox="0 0 372.5 306.25">
  <path fill="#3C63AE" d="M-.132.396h372.5v306.25H-.132z"/>
  <g opacity=".6">
    <defs>
      <path id="a" d="M74.556 52h223.126v220.266H74.556z"/>
    </defs>
    <clipPath id="b">
      <use xlink:href="#a" overflow="visible"/>
    </clipPath>
    <path clip-path="url(#b)" fill="#FFF" d="M204.145 155.493c-.762 0-1.525-.305-2.086-.908-1.083-1.15-1.02-2.96.13-4.042l29.156-27.293c1.154-1.082 2.965-1.023 4.045.132 1.08 1.153 1.02 2.963-.134 4.044L206.1 154.72c-.55.516-1.254.773-1.955.773zm0 0"/>
    <path clip-path="url(#b)" fill="#FFF" d="M289.542 183.705c-15.068-69.94-35.66-98.722-36.53-99.91-.306-.418-.72-.753-1.214-.96L220.642 69.92l-.48-2.124c-.135-.6-.463-1.143-.934-1.545l-15.89-13.564-.007.008c-.5-.425-1.14-.693-1.85-.693h-30.803c-.71 0-1.35.27-1.85.694l-.008-.008-15.89 13.564c-.47.402-.8.944-.935 1.545l-.48 2.13-31.145 12.91c-.494.207-.91.542-1.216.958-.868 1.19-21.46 29.972-36.525 99.88-.1.43-9.75 43.5-7.82 85.643.072 1.528 1.33 2.73 2.858 2.73h29.455c1.522 0 2.776-1.19 2.857-2.71.022-.46 2.093-38.813 6.89-66.826 2.197 13.658 5.23 33.584 6.396 46.393.112 1.26 1.04 2.294 2.28 2.545.29.06 29.18 5.834 60.38 5.87.002 0 .004.003.008.003.048 0 .098-.003.148-.003.05 0 .1.004.147.004.005 0 .005-.003.01-.003 31.2-.035 60.087-5.81 60.378-5.87 1.24-.25 2.166-1.284 2.28-2.544 1.163-12.805 4.196-32.734 6.396-46.393 4.797 28.014 6.867 66.367 6.893 66.825.078 1.52 1.334 2.71 2.854 2.71h29.456c1.53 0 2.785-1.2 2.86-2.73 1.932-42.143-7.723-85.21-7.814-85.61zm-74.75-113.723l7.102 31.458-21.832-.992c-1.13-.056-2.203.582-2.7 1.606-.5 1.028-.34 2.255.4 3.118l15.134 17.58-39.36 31.982c1.755-3.597 16.715-36.533 17.456-38.31 12.115-29.008 15.7-44.6 15.71-53.348l8.09 6.906zm-42.663-12.26h27.896c1.658 3.28 2.936 14.976-13.947 55.613-16.873-40.602-15.628-52.312-13.95-55.614zm-14.762 12.26l8.078-6.897c.006 9.182 3.96 25.877 17.52 57.594-2.355 5.444-4.738 10.735-7.008 15.64l-16.697-13.57 15.134-17.578c.744-.866.903-2.09.402-3.118-.496-1.025-1.553-1.656-2.7-1.606l-21.833.992 7.105-31.458zm16.096 71.683c-2.63 5.582-5.012 10.465-6.875 14.23-1.043-7.825-2.054-15.348-2.983-22.24l9.857 8.01zm-13.51-34.936l5.78-.265-5.02 5.83-.76-5.566zM96.577 266.323H93.8l2.777-10.34v10.34zm17.86-80.035c-.003.002-.003.008-.003.01-6.34 23.953-9.325 68.492-10.013 80.027H102.3v-32.022c0-1.437-1.063-2.648-2.486-2.835-1.418-.188-2.766.707-3.137 2.095l-8.797 32.763h-7.462c-1.374-40.465 7.7-80.97 7.8-81.415 12.163-56.455 28.26-86.008 33.686-94.852 1.28 1.696 2.934 4.465 4.3 8.703 2.63 8.138 4.533 23.075-1.312 48.038l-10.453 39.49zm11.917 40.61l19.587-56.722c.52-1.494-.274-3.123-1.767-3.637-1.495-.517-3.124.277-3.64 1.77l-15.982 46.28c-2-13.164-3.954-24.69-4.427-27.438l10.325-39.01c8.872-37.852.927-55.05-4.06-61.608l23.58-9.778-6.11 27.084c-.2.868.02 1.782.593 2.467.575.682 1.443 1.064 2.325 1.02l7.438-.338c.32 2.333.844 6.158 1.514 11.097l-2.72 3.163c-.507.584-.753 1.35-.683 2.12.067.768.447 1.478 1.045 1.964l3.75 3.05c4.303 31.8 10.896 81.218 14.16 109.016-21.948-.846-38.438-3.086-44.03-3.928-.284-2.157-.583-4.358-.896-6.573zm2.402 19.333c-.216-2.148-.472-4.46-.763-6.873 6.986 1.004 23.105 3.02 43.95 3.783.353 3.135.644 5.87.86 8.112-20.553-1.003-38.175-3.952-44.047-5.022zm114.653 0c-7.105 1.293-31.425 5.35-57.327 5.363-2.523 0-5.03-.04-7.51-.114-.21-2.222-.5-4.976-.854-8.163 3.41.08 6.924.125 10.533.125 17.215 0 36.48-1.036 55.92-4.056-.292 2.402-.55 4.7-.764 6.843zm4.204-31.63l-15.988-46.294c-.514-1.492-2.143-2.286-3.637-1.77-1.495.515-2.29 2.144-1.772 3.636l19.592 56.733c-.31 2.215-.61 4.418-.895 6.572-24.01 3.872-47.846 4.615-67.853 4.104-2.1-17.957-5.637-45.256-9.047-70.992l50.77-41.26c.603-.487.98-1.197 1.05-1.968.066-.768-.18-1.533-.682-2.12l-12.73-14.782 18.958.86c.896.05 1.75-.337 2.323-1.02s.793-1.597.598-2.465l-6.116-27.09 23.592 9.78c-4.988 6.563-12.93 23.76-4.06 61.612.01.025 10.325 39.006 10.325 39.006-.47 2.753-2.426 14.288-4.426 27.456zm27.974 51.72v-10.338l2.775 10.34h-2.775zm16.16 0h-7.458l-8.8-32.762c-.372-1.384-1.706-2.278-3.138-2.09-1.422.186-2.486 1.397-2.486 2.834v32.02h-2.12c-.688-11.532-3.675-56.07-10.01-80.024l-.005-.01-10.452-39.493c-8.402-35.892-.924-51.43 3.004-56.712 5.44 8.878 21.518 38.433 33.676 94.857.09.414 9.166 40.92 7.79 81.382zm0 0"/>
    <path fill="#FFF" d="M219.438 204.41h-24.156c-1.582 0-2.86 1.283-2.86 2.86v8.826c0 1.148.685 2.184 1.743 2.635l12.078 5.124v-.006c.354.148.73.232 1.117.232.373 0 .752-.073 1.115-.227l12.08-5.123c1.055-.45 1.742-1.486 1.742-2.635v-8.825c0-1.577-1.28-2.86-2.86-2.86zm-2.86 9.792l-9.22 3.91-9.217-3.91v-4.07h18.437v4.07zm0 0"/>
  </g>
</svg>
