<svg xmlns="http://www.w3.org/2000/svg" xmlns:xlink="http://www.w3.org/1999/xlink" width="372.5" height="306.25" viewBox="0 0 372.5 306.25">
  <path fill="#3C63AE" d="M0 0h372.5v306.25H0z"/>
  <g opacity=".6">
    <defs>
      <path id="a" d="M93.358 48.402H279.14v201.78H93.36z"/>
    </defs>
    <clipPath id="b">
      <use xlink:href="#a" overflow="visible"/>
    </clipPath>
    <path clip-path="url(#b)" fill="#FFF" d="M192.377 106.466c-.645 0-1.273-.265-1.73-.72-.457-.45-.715-1.08-.715-1.726s.258-1.278.714-1.73c.454-.455 1.087-.715 1.73-.715s1.276.26 1.728.714c.46.457.72 1.085.72 1.73 0 .64-.26 1.27-.72 1.727-.455.454-1.082.72-1.727.72zm0 0"/>
    <path clip-path="url(#b)" fill="#FFF" d="M278.416 126.498l-24.98-49.49c-.85-2.815-4.103-7.258-20.364-13.91-7.264-2.97-14.236-5.195-16.68-5.95-1.953-3.017-4.982-5.797-9.104-8.374l-.012.005c-.373-.238-.81-.378-1.285-.378H166.05c-.475 0-.915.138-1.288.375l-.01-.002c-4.12 2.577-7.15 5.357-9.104 8.374-2.44.753-9.415 2.978-16.68 5.95-16.265 6.65-19.515 11.093-20.363 13.91l-24.98 49.49c-.297.584-.345 1.266-.135 1.886.21.62.66 1.132 1.25 1.417l35.625 17.27v97.86c0 1.033.65 1.958 1.626 2.305.8.283 9.123 2.787 54.026 2.787h.007c44.904 0 53.227-2.504 54.03-2.787.974-.347 1.624-1.27 1.624-2.306V147.07L277.3 129.8c.59-.286 1.04-.797 1.25-1.418.21-.617.16-1.3-.134-1.884zm-27.143-42.914l18.025 35.705-27.622 13.514v-11.966c0-13.04 6.246-29.41 9.597-37.254zm-44.065-28.95c5.33 3.977 7.52 8.238 6.862 13.246-.717 5.448-3.82 18.18-5.142 23.49l-13.83-3.674 12.11-33.062zM189.69 88.24l-3.67 5.34-3.67-5.34-10.156-27.72h27.65L189.69 88.24zm12.8-34.946l-.854 2.333h-31.234l-.855-2.333h32.944zm-37.66 1.34l12.108 33.062-13.83 3.675c-1.322-5.313-4.425-18.04-5.14-23.49-.66-5.008 1.53-9.27 6.86-13.246zm-34.47 87l-31.253-15.15 1.426-2.825 29.828 14.59v3.384zm0-8.83l-27.623-13.515 18.025-35.71c3.352 7.843 9.598 24.202 9.598 37.257v11.967zm106.424-11.966v122.13c-4.023.697-16.557 2.163-50.764 2.163-34.21 0-46.742-1.465-50.767-2.163v-122.13c0-16.97-9.43-38.174-11.694-43.023 2.36-4.05 16.068-10.31 29.683-14.777-.334 1.754-.375 3.578-.127 5.48.953 7.23 5.658 25.678 5.86 26.46.16.632.568 1.174 1.13 1.503.378.222 1.184.47 1.867.255l17.147-4.557 4.45 6.472v20.016c0 1.352 1.096 2.446 2.445 2.446 1.352 0 2.447-1.094 2.447-2.446V98.66l4.46-6.48 17.145 4.556c.207.056 1.185.244 1.865-.255.67-.486.97-.87 1.133-1.5.2-.784 4.905-19.232 5.855-26.46.252-1.904.21-3.73-.126-5.485 13.616 4.467 27.326 10.727 29.687 14.78-2.267 4.848-11.696 26.053-11.696 43.023zm4.892 20.796v-3.384l29.826-14.59 1.427 2.824-31.254 15.15zm0 0"/>
  </g>
</svg>
