<svg xmlns="http://www.w3.org/2000/svg" width="372.5" height="306.25" viewBox="0 0 372.5 306.25">
  <path fill="#3C63AE" d="M.388.578h372.5v306.25H.388z"/>
  <path opacity=".6" fill="#FFF" d="M296.397 171.045c-8.855-37.09-34.416-84.588-34.668-85.07-.403-.76-1.146-1.124-1.147-1.127-8.21-4.375-31.91-12.84-37.068-14.668l-6.373-11.07c-.49-.852-1.4-1.376-2.38-1.376h-45.91c-.982 0-1.89.524-2.38 1.375L160.1 70.18c-5.16 1.827-28.864 10.295-37.072 14.67 0 0-.753.382-1.142 1.126-.25.48-25.812 47.98-34.668 85.07-.083.345-.097.702-.043 1.054.107.697 10.796 70.13 15.817 95.23.26 1.3 1.4 2.204 2.686 2.204.924 0 29.732-5.275 29.732-5.275h112.797s28.547 5.274 29.73 5.274c1.282 0 2.427-.904 2.687-2.205 5.02-25.1 15.71-94.532 15.818-95.23.053-.35.04-.71-.043-1.055zM223.692 76.07c6.89 2.466 24.055 8.706 32.275 12.605l-.766 2.323-32.235-11.738c.252-1.065.496-2.13.727-3.19zm-4.942-3.164c-2.14 10.53-5.855 22.42-7.68 28.004l-15-9.052c7.912-9.038 15.057-20.102 18.646-25.957l4.034 7.006zm-14.576 82.075l3.66.835 5.39 86.926H198.69V122.99h1.004l.44 5.812c.083 1.104.825 2.053 1.878 2.397 0 .002.014.005.027.01v21.095c.002 1.28.888 2.39 2.134 2.676zm16.696-1.815l-13.342-3.047v-17.172c3.432 1.056 8.045 2.428 12.64 3.646l.003-.01c.228.06.46.1.698.1.232 0 .47-.028.7-.09 4.6-1.218 9.214-2.59 12.642-3.646v17.172l-13.34 3.047zm7.457 3.925l-5.31 85.652h-4.296l-5.308-85.652 6.848 1.564c.203.045.408.07.613.07s.41-.033.605-.078l.002.008 6.847-1.564zm-5.334-26.57c.39-.485.62-1.093.62-1.723 0-.72-.29-1.427-.802-1.935-.51-.512-1.216-.81-1.942-.81-.723 0-1.426.298-1.938.81-.51.508-.807 1.216-.807 1.935 0 .63.236 1.237.63 1.722-5.517-1.524-10.692-3.14-13.286-3.97l-.268-3.56h31.34l-.27 3.56c-2.594.827-7.766 2.442-13.277 3.97zm-31.188 89.66c-.494 0-.975.145-1.396.393v-25.86c.42.25.9.396 1.395.396.492 0 .98-.147 1.398-.4v25.866c-.42-.25-.9-.396-1.398-.396zm1.4 5.088v17.475h-2.796v-17.47c.42.247.9.395 1.395.395.498 0 .98-.15 1.4-.4zm-1.4-35.65c-.494 0-.975.145-1.396.395v-25.86c.42.25.9.397 1.395.397.492 0 .98-.146 1.398-.398v25.863c-.42-.25-.906-.397-1.398-.397zm0-30.56c-.494 0-.975.145-1.396.395v-25.858c.42.25.9.394 1.395.394.492 0 .98-.146 1.398-.4v25.87c-.42-.256-.906-.403-1.398-.403zm0-30.556c-.494 0-.975.145-1.396.39v-5.9h2.794v5.907c-.42-.254-.907-.398-1.4-.398zm-1.396-11v-14.47c.423.25.905.395 1.395.395.492 0 .98-.146 1.398-.395v14.47h-2.794zm1.395-19.564c-.494 0-.975.15-1.396.4v-1.802l1.395-.844 1.398.844v1.804c-.42-.25-.9-.402-1.398-.402zm0-9.542c-3.414-3.888-6.712-8.23-9.64-12.355h19.28c-2.923 4.128-6.224 8.466-9.64 12.356zm18.108-25.173c-1.205 1.96-2.814 4.5-4.7 7.33H178.4c-1.884-2.83-3.495-5.37-4.7-7.33h36.213zm-49.99 12.847c.227 1.048.467 2.104.717 3.157L128.4 90.97l-.755-2.294c8.22-3.9 25.384-10.14 32.277-12.606zm-52.07 187.544c-.588-3.063-1.242-6.625-1.937-10.52l24.602-4.408c.67 4.66 1.206 8.32 1.54 10.594l-24.204 4.334zm24.567-40.908c-1.773-13.03-3.703-27.79-5.318-41.615 1.238-3.106 3.312-8.257 5.318-13.114v54.73zm0-68.52c-2.625 5.282-10.332 24.66-10.672 25.522-.17.422-.23.88-.178 1.33 2.54 21.785 5.866 46.006 8.17 62.213l-24.772 4.44c-5.005-28.807-11.484-70.68-12.288-75.893 6.975-28.778 24.11-63.913 31.045-77.48l8.695 26.367v33.5zm52.5 104.586H137.91v-10.54h47.013v10.54zm-38.87-103.79l3.66.833 5.388 86.926h-17.19V122.99h3.66l.44 5.812c.083 1.104.826 2.053 1.88 2.397 0 .002.012.005.028.01v21.095c0 1.28.885 2.39 2.133 2.676zm16.692-1.817l-13.338-3.047v-17.172c3.426 1.056 8.04 2.428 12.637 3.646l.003-.01c.226.06.458.1.696.1.232 0 .47-.028.704-.09 4.597-1.218 9.21-2.59 12.637-3.646v17.172l-13.338 3.047zm7.457 3.925l-5.31 85.652h-4.297l-5.31-85.652 6.847 1.564c.207.045.41.07.614.07.207 0 .41-.033.608-.078v.008l6.847-1.564zm-5.332-26.57c.388-.485.618-1.093.618-1.723 0-.72-.29-1.427-.802-1.935-.51-.512-1.216-.81-1.942-.81-.724 0-1.43.298-1.942.81-.51.508-.802 1.216-.802 1.935 0 .63.23 1.237.622 1.722-5.515-1.527-10.687-3.143-13.28-3.97l-.268-3.56h31.34l-.268 3.56c-2.593.827-7.765 2.442-13.276 3.97zm20.053 112.223h-14.533l5.39-86.926 3.66-.836c1.248-.286 2.133-1.395 2.133-2.675V131.21c.017-.005.03-.008.03-.01 1.052-.346 1.794-1.292 1.878-2.398l.438-5.812h1.005v119.753zm0-125.24h-47.773l-7.028-21.32 31.856-11.602c2.907 11.07 6.268 20.808 6.455 21.352.272.782.883 1.398 1.66 1.68.306.11.62.164.936.164.492 0 .982-.13 1.418-.394l12.478-7.533V117.5zm-12.38-16.59c-1.823-5.585-5.534-17.472-7.68-28.004l4.035-7.01c3.587 5.856 10.733 16.92 18.644 25.958l-15 9.055zm73.166 157.86H190.41v-2.94c.42.248.9.396 1.395.396.72 0 1.428-.296 1.938-.808.512-.51.807-1.22.807-1.938 0-.725-.295-1.432-.807-1.943-.51-.507-1.217-.8-1.938-.8-.494 0-.975.145-1.396.395v-2.904h55.296v10.542zm0-16.03h-17.19l5.388-86.926 3.662-.836c1.248-.286 2.133-1.395 2.133-2.675V131.21l.028-.01c1.053-.346 1.793-1.292 1.877-2.398l.44-5.812h3.66v119.753zm.757-125.24h-47.77V99.848l12.478 7.532c.433.263.923.394 1.42.394.312 0 .628-.054.93-.163.78-.282 1.39-.898 1.66-1.68.19-.545 3.542-10.264 6.446-21.323l31.855 11.604-7.017 21.288zm4.73 50.472c2.007 4.857 4.077 10.008 5.315 13.115-1.615 13.824-3.543 28.586-5.316 41.617v-54.732zm24.565 95.64l-24.207-4.335c.34-2.273.874-5.934 1.544-10.594l24.6 4.408c-.692 3.895-1.346 7.457-1.936 10.52zm2.887-15.925l-24.773-4.44c2.305-16.206 5.633-40.427 8.168-62.212.053-.45-.008-.908-.174-1.33-.344-.86-8.047-20.24-10.674-25.523v-33.5l8.695-26.37c6.932 13.567 24.068 48.694 31.047 77.483-.805 5.212-7.283 47.083-12.29 75.892zm0 0"/>
</svg>
