<svg xmlns="http://www.w3.org/2000/svg" width="372.5" height="306.25" viewBox="0 0 372.5 306.25">
  <path fill="#3C63AE" d="M.113.578h372.5v306.25H.113z"/>
  <path opacity=".6" fill="#FFF" d="M307.517 186.94c-.753-.482-1.696-.555-2.513-.195-.544-2.36-1.686-4.45-3.424-6.242-7.756-7.99-25.832-7.928-39.033-7.883-3.657.014-6.813.023-9.197-.135-10.756-.72-26.674-9.752-31.4-12.568l.215-2.582c.074-.89-.302-1.762-1.005-2.316-25.982-20.545-47.264-26.397-48.155-26.636-1.084-.29-2.137.207-2.877 1.048-6.623 7.534-16.775 15.272-16.83 15.313-11.634 8.578-25.558 10.957-41.393 7.074-12.033-2.952-20.698-8.6-20.78-8.656-.84-.555-1.92-.588-2.794-.09-.838.478-3.066 1.753-8.77 22.823-3.8 14.055-1.15 22.912 1.19 27.416-.16.098-1.28.893-1.28 2.275v18.672c0 1.475 1.193 2.67 2.668 2.67h59.818c1.473 0 2.67-1.195 2.67-2.67v-4.053c19.656.285 33.1 1.818 46.107 3.387 22.684 2.736 43.968 3.375 45.018 3.375 31.292 0 65.798-11.663 71.987-16.587.635-.508 1.008-1.277 1.008-2.09v-9.105c0-.912-.464-1.758-1.228-2.248zm-88.17-6.082c.585-.46.952-1.14 1.015-1.883l1.098-13.158c6.67 3.824 20.906 11.285 31.536 11.994 2.57.173 5.813.16 9.57.146 11.55-.04 29.007-.098 35.184 6.266 1.26 1.295 1.983 2.822 2.208 4.63-8.035 3.19-24.842 9.18-43.843 11.98-5.64.83-12.26 1.25-19.67 1.25-14.026 0-27.78-1.452-36.88-2.417-1.485-.156-35.302-3.813-47.01-4.547 10.535-22.23 64.152-13.82 64.72-13.73.733.12 1.483-.07 2.07-.53zM84.71 167.29c2.93-10.826 4.84-15.915 5.875-18.228 3.546 2.008 10.742 5.634 19.878 7.898 17.227 4.268 33.103 1.55 45.917-7.86 1.115-.702 6.105-4.513 16.952-15.03 1.728.567 4.69 1.63 8.59 3.32l-2.313 4.38c-.687 1.306-.187 2.92 1.116 3.608.398.208.823.307 1.243.307.958 0 1.883-.52 2.363-1.425l2.45-4.644c2.22 1.067 4.633 2.3 7.208 3.713l-2.29 4.742c-.64 1.33-.083 2.925 1.243 3.565.375.18.77.266 1.16.266.99 0 1.943-.555 2.402-1.51l2.135-4.414c2.19 1.3 4.475 2.722 6.828 4.272l-1.976 4.894c-.55 1.367.108 2.922 1.475 3.475.33.132.667.194.998.194 1.058 0 2.057-.63 2.476-1.672l1.542-3.81c2.2 1.554 4.45 3.212 6.74 4.992l-1.447 17.387c-12.283-1.595-59.294-5.966-68.374 19.087-4.502-.225-9.284-.396-14.426-.498-25.155-.485-39.042-.935-45.53-1.18-.722-.815-6.933-8.446-2.232-25.83zm218.696 29.59c-3.51 2.1-12.432 5.552-24.036 8.585-15.2 3.98-30.69 6.166-43.62 6.166-1.004 0-24.292-1.17-44.397-3.34-13.756-1.48-27.948-3.274-49.378-3.45h-.023c-1.422 0-2.67.436-2.67 2.67v4.08H84.807v-13.215c5.478.225 19.58.4 47.57 1.26 30.872.95 65.154 5.18 66.628 5.336 9.213.98 23.135 2.45 37.44 2.45 7.672 0 14.552-.44 20.446-1.31 20.967-3.09 38.956-9.784 46.517-12.88v3.65zm0 0"/>
</svg>
