<svg xmlns="http://www.w3.org/2000/svg" width="372.5" height="306.25" viewBox="0 0 372.5 306.25">
  <path fill="#3C63AE" d="M-.104.396h372.5v306.25H-.104z"/>
  <path opacity=".6" fill="#FFF" d="M283.687 201.766c-.696-13.184-22.793-97.617-24.636-105.77-1.706-7.565-4.498-13.237-8.875-17.71-.042-.053-10.685-8.773-35.983-19.52l-6.29-10.298c-.495-.806-1.375-1.273-2.3-1.25v-.004h-32.867v.004c-.924-.023-1.804.444-2.298 1.25l-6.292 10.3c-26.417 11.333-35.94 19.465-35.98 19.514-4.376 4.477-6.642 8.67-8.88 17.717-2.006 8.11-23.936 92.582-24.635 105.765-.99 18.732 1.487 35.904 1.697 37.32l1.08 11.564c.126 1.35 1.257 2.378 2.61 2.378h16.81c1.225 0 2.287-.848 2.558-2.043l2.554-11.273c.5-.92 1.883-3.552 3.44-7.344l-.083 7.72c-.02.716.136 3.15 2.777 5.983 5.286 5.673 20.172 12.436 61.075 12.436 40.9 0 55.79-6.763 61.074-12.435 2.64-2.833 2.795-5.267 2.778-5.98l-.085-7.726c1.558 3.796 2.938 6.428 3.44 7.348l2.557 11.273c.27 1.195 1.33 2.043 2.557 2.043h16.81c1.354 0 2.485-1.03 2.61-2.38l1.077-11.564c.213-1.414 2.69-18.585 1.7-37.318zM206.545 56.304l3.127 5.122c-1.436 9.117-7.85 16.703-11.145 20.08l-5.552-7.006c7.723-5.686 11.645-13.07 13.57-18.196zm-17.375-3.847h13.14c-1.35 4.362-4.856 12.532-13.14 18.316-8.237-5.76-11.764-13.947-13.133-18.316h13.133zm-17.375 3.847c1.922 5.127 5.844 12.51 13.57 18.196l-5.556 7.008c-3.295-3.363-9.704-10.932-11.145-20.082l3.13-5.122zm-57.04 191.484h-12.33l-.595-6.395h14.375l-1.45 6.395zm3.152-11.636h-16.66c-.663-5.313-2.14-19.382-1.362-34.106.67-12.652 22.654-96.654 24.515-104.893 1.224-5.425 2.954-9.58 5.537-12.965.868 2.002 1.372 4.787 1.403 7.98v32.96l-5.71 87.044c-1.555 11.024-5.996 20.575-7.723 23.98zm12.65 4.026l.3-27.64 5.72-87.155c.004-.055.004-33.148.004-33.167 0 0 .224-7.76-2.817-12 13.264-8.24 25.17-13.47 30.187-15.656 3.092 13.08 13.935 22.408 14.436 22.824 1.398 1.16 2.688.837 3.748-.37l4.413-5.57v171.813c-28.202-.21-42.016-3.805-48.663-6.833-6.752-3.074-7.326-6.246-7.326-6.246zm117.223.003c-.033.254-.574 3.17-7.326 6.245-6.647 3.028-20.46 6.622-48.662 6.833V81.444l4.412 5.57c1.188 1.457 2.874 1.208 3.747.37.475-.452 11.348-9.743 14.438-22.823 11.096 4.527 28.682 14.405 30.19 15.66-2.345 3.76-2.788 8.862-2.82 11.893 0 0 0 33.213.005 33.27l5.717 87.157.3 27.637v.004zm28.134 7.608h-12.33l-1.448-6.395h14.375l-.596 6.395zm1.18-11.636h-16.66c-1.73-3.407-6.17-12.956-7.725-23.98l-5.712-87.045s0-32.896.003-32.96c.03-3.192.535-5.977 1.403-7.98 2.582 3.385 4.31 7.545 5.534 12.966 1.86 8.24 23.845 92.24 24.516 104.893.778 14.71-.7 28.788-1.36 34.106zm0 0"/>
</svg>
